<svg width="268" height="243" xmlns="http://www.w3.org/2000/svg" xmlns:xlink="http://www.w3.org/1999/xlink" overflow="hidden"><defs><clipPath id="clip0"><rect x="729" y="71" width="268" height="243"/></clipPath><clipPath id="clip1"><rect x="762" y="223" width="20" height="16"/></clipPath><clipPath id="clip2"><rect x="762" y="223" width="20" height="16"/></clipPath><clipPath id="clip3"><rect x="762" y="223" width="20" height="16"/></clipPath><clipPath id="clip4"><rect x="762" y="223" width="20" height="16"/></clipPath><clipPath id="clip5"><rect x="768" y="266" width="20" height="20"/></clipPath><clipPath id="clip6"><rect x="768" y="266" width="20" height="20"/></clipPath><clipPath id="clip7"><rect x="768" y="266" width="20" height="20"/></clipPath><clipPath id="clip8"><rect x="752" y="181" width="21" height="20"/></clipPath><clipPath id="clip9"><rect x="752" y="181" width="21" height="20"/></clipPath><clipPath id="clip10"><rect x="752" y="181" width="21" height="20"/></clipPath><clipPath id="clip11"><rect x="732" y="72" width="62" height="42"/></clipPath><clipPath id="clip12"><rect x="732" y="72" width="62" height="42"/></clipPath><clipPath id="clip13"><rect x="732" y="62" width="62" height="62"/></clipPath></defs><g clip-path="url(#clip0)" transform="translate(-729 -71)"><path d="M734.475 79.4844 988.475 79.4844 988.475 313.484 734.475 313.484Z" stroke="#262261" stroke-width="1.33333" stroke-miterlimit="8" fill="#FFFFFF" fill-rule="evenodd"/><text font-family="Calibri,Calibri_MSFontService,sans-serif" font-weight="700" font-size="14" transform="translate(781.915 215)">signature content <tspan font-size="14" x="105.833" y="0">(blob)</tspan></text><path d="M772.982 211.57 763.167 211.57 763.167 201.5 763.833 201.5 763.833 211.237 763.5 210.903 772.982 210.903ZM771.649 207.237 779.649 211.237 771.649 215.237Z" fill="#4472C4"/><path d="M762.334 231.433 746.167 231.433 746.167 121.167 746.833 121.167 746.833 231.1 746.5 230.766 762.334 230.766ZM742.5 122.5 746.5 114.5 750.5 122.5Z" fill="#4472C4"/><text font-family="Consolas,Consolas_MSFontService,sans-serif" font-weight="400" font-size="24" transform="translate(797.388 102)">net-<tspan font-size="24" x="52.6667" y="0">monitor:</tspan><tspan font-size="24" x="158" y="0">v1</tspan><tspan font-family="Calibri,Calibri_MSFontService,sans-serif" font-weight="700" font-size="14" x="-11.1098" y="133">SBoM</tspan><tspan font-family="Calibri,Calibri_MSFontService,sans-serif" font-size="14" x="26.2236" y="133">document</tspan></text><g clip-path="url(#clip1)"><g clip-path="url(#clip2)"><g clip-path="url(#clip3)"><g clip-path="url(#clip4)"><text font-family="Calibri,Calibri_MSFontService,sans-serif" font-weight="400" font-size="8" transform="matrix(1.03018 0 0 1.12131 763.241 229)">S<tspan font-size="8" x="3.01455" y="2.67544">B</tspan><tspan font-size="8" x="6.23102" y="4.45906">o</tspan><tspan font-size="7" x="7.98106" y="7.1345">M</tspan></text></g></g></g></g><text font-family="Calibri,Calibri_MSFontService,sans-serif" font-weight="700" font-size="14" transform="translate(788.638 280)">Wabbit Networks <tspan font-weight="400" font-size="14" x="105.5" y="0">signature</tspan></text><g clip-path="url(#clip5)"><g clip-path="url(#clip6)"><g clip-path="url(#clip7)"><path d="M780.579 276.402 778.994 275.006 773.962 281.201 775.569 282.575Z" fill="#262261"/><path d="M774.089 282.977 773.243 282.3 772.778 284.351 774.681 283.484Z" fill="#262261"/><path d="M785.484 267.015 787.091 268.389 787.937 267.353 786.288 266.021Z" fill="#262261"/><path d="M782.334 276.106 783.328 276.909 785.844 273.822C786.689 272.85 787.091 271.624 786.901 270.609 786.816 270.144 786.605 269.742 786.309 269.404L784.702 268.008 779.776 274.034 781.383 275.429 785.463 270.397C785.548 270.524 785.611 270.672 785.632 270.841 785.759 271.476 785.442 272.321 784.871 272.998L782.334 276.106Z" fill="#262261"/><path d="M769.078 282.512C769.12 282.406 769.163 282.3 769.226 282.195 769.353 281.983 769.501 281.814 769.691 281.645 770.051 281.307 770.516 281.032 771.002 280.778 771.488 280.524 771.996 280.292 772.524 280.038 772.778 279.911 773.053 279.763 773.328 279.573 773.476 279.488 773.603 279.383 773.751 279.235 773.898 279.087 774.047 278.918 774.131 278.643 774.237 278.389 774.216 278.051 774.131 277.818 774.047 277.564 773.877 277.374 773.729 277.226 773.412 276.951 773.116 276.803 772.841 276.655 772.292 276.381 771.763 276.211 771.277 275.979 770.812 275.746 770.41 275.493 770.178 275.154 769.945 274.837 769.86 274.414 769.924 273.949 769.987 273.463 770.135 272.998 770.389 272.596 770.918 271.793 771.911 271.264 772.968 270.968 773.497 270.82 774.047 270.715 774.617 270.651 774.892 270.609 775.188 270.588 775.463 270.567 775.738 270.545 776.034 270.524 776.33 270.524 775.188 270.228 774.004 270.165 772.82 270.313 772.228 270.397 771.636 270.545 771.066 270.799 770.495 271.053 769.966 271.433 769.543 271.962 769.332 272.216 769.163 272.512 769.036 272.808 768.909 273.125 768.825 273.421 768.761 273.759 768.698 274.097 768.698 274.436 768.74 274.795 768.803 275.154 768.93 275.514 769.142 275.831 769.353 276.148 769.607 276.381 769.882 276.592 770.156 276.803 770.431 276.951 770.706 277.099 771.256 277.374 771.805 277.586 772.292 277.797 772.524 277.903 772.736 278.03 772.863 278.135 772.926 278.178 772.947 278.22 772.947 278.241 772.947 278.262 772.947 278.241 772.947 278.241 772.947 278.241 772.926 278.304 772.863 278.368 772.799 278.431 772.715 278.495 772.63 278.579 772.44 278.727 772.207 278.854 771.975 279.002 771.488 279.277 770.981 279.552 770.474 279.848 769.966 280.165 769.459 280.524 769.036 281.011 768.825 281.243 768.634 281.539 768.507 281.835 768.444 281.983 768.381 282.152 768.359 282.321 768.317 282.49 768.317 282.638 768.296 282.786 768.275 283.104 768.275 283.421 768.381 283.759 768.465 284.076 768.655 284.393 768.93 284.605 769.205 284.816 769.522 284.922 769.818 284.964 770.135 285.006 770.431 285.006 770.727 284.964 771.319 284.901 771.869 284.732 772.397 284.52 771.827 284.626 771.256 284.689 770.706 284.668 770.431 284.647 770.156 284.626 769.903 284.541 769.649 284.478 769.417 284.351 769.268 284.182 768.951 283.865 768.909 283.357 769.015 282.85 769.015 282.765 769.057 282.617 769.078 282.512Z" fill="#262261"/></g></g></g><text font-family="Calibri,Calibri_MSFontService,sans-serif" font-weight="700" font-size="14" transform="translate(772.958 195)">Wabbit Networks <tspan font-weight="400" font-size="14" x="105.5" y="0">signature</tspan></text><g clip-path="url(#clip8)"><g clip-path="url(#clip9)"><g clip-path="url(#clip10)"><path d="M12.5793 10.4017 10.9937 9.00634 5.96195 15.2008 7.56871 16.5751Z" fill="#262261" transform="matrix(1.05 0 0 1 752 181)"/><path d="M6.0888 16.9767 5.24313 16.3002 4.77801 18.351 6.68076 17.4841Z" fill="#262261" transform="matrix(1.05 0 0 1 752 181)"/><path d="M17.4841 1.0148 19.0909 2.38901 19.9366 1.35307 18.2875 0.0211417Z" fill="#262261" transform="matrix(1.05 0 0 1 752 181)"/><path d="M14.334 10.1057 15.3277 10.9091 17.8436 7.82241C18.6892 6.8499 19.0909 5.62368 18.9006 4.60888 18.8161 4.14376 18.6047 3.74207 18.3087 3.40381L16.7019 2.00846 11.7759 8.03383 13.3827 9.42918 17.463 4.39746C17.5476 4.52431 17.611 4.6723 17.6321 4.84144 17.759 5.47569 17.4419 6.32135 16.871 6.99789L14.334 10.1057Z" fill="#262261" transform="matrix(1.05 0 0 1 752 181)"/><path d="M1.07822 16.5116C1.12051 16.4059 1.16279 16.3002 1.22622 16.1945 1.35307 15.9831 1.50106 15.814 1.69133 15.6448 2.05074 15.3066 2.51586 15.0317 3.00211 14.778 3.48837 14.5243 3.99577 14.2918 4.52431 14.0381 4.77801 13.9112 5.05285 13.7632 5.3277 13.5729 5.47569 13.4884 5.60254 13.3827 5.75053 13.2347 5.89852 13.0867 6.04651 12.9175 6.13108 12.6427 6.23679 12.389 6.21564 12.0507 6.13108 11.8182 6.04651 11.5645 5.87738 11.3742 5.72939 11.2262 5.41226 10.9514 5.11628 10.8034 4.84144 10.6554 4.29175 10.3805 3.76321 10.2114 3.27696 9.97886 2.81184 9.7463 2.41015 9.4926 2.17759 9.15433 1.94503 8.83721 1.86047 8.41438 1.92389 7.94926 1.98731 7.463 2.13531 6.99789 2.38901 6.59619 2.91755 5.79281 3.91121 5.26427 4.96829 4.96829 5.49683 4.8203 6.04651 4.71459 6.61734 4.65116 6.89218 4.60888 7.18816 4.58774 7.463 4.5666 7.73784 4.54545 8.03383 4.52431 8.32981 4.52431 7.18816 4.22833 6.00423 4.16491 4.8203 4.3129 4.22833 4.39746 3.63636 4.54545 3.06554 4.79915 2.49471 5.05285 1.96617 5.4334 1.54334 5.96195 1.33192 6.21564 1.16279 6.51163 1.03594 6.80761 0.909091 7.12474 0.824524 7.42072 0.761099 7.75899 0.697674 8.09725 0.697674 8.43552 0.739958 8.79493 0.803383 9.15433 0.930233 9.51374 1.14165 9.83087 1.35307 10.148 1.60677 10.3805 1.88161 10.592 2.15645 10.8034 2.43129 10.9514 2.70613 11.0994 3.25581 11.3742 3.8055 11.5856 4.29175 11.797 4.52431 11.9027 4.73573 12.0296 4.86258 12.1353 4.926 12.1776 4.94715 12.2199 4.94715 12.241 4.94715 12.2622 4.94715 12.241 4.94715 12.241 4.94715 12.241 4.926 12.3044 4.86258 12.3679 4.79915 12.4313 4.71459 12.4947 4.63002 12.5793 4.43975 12.7273 4.20719 12.8541 3.97463 13.0021 3.48837 13.277 2.98097 13.5518 2.47357 13.8478 1.96617 14.1649 1.45877 14.5243 1.03594 15.0106 0.824524 15.2431 0.63425 15.5391 0.5074 15.8351 0.443975 15.9831 0.38055 16.1522 0.359408 16.3214 0.317125 16.4905 0.317125 16.6385 0.295983 16.7865 0.274841 17.1036 0.274841 17.4207 0.38055 17.759 0.465116 18.0761 0.655391 18.3932 0.930233 18.6047 1.20507 18.8161 1.5222 18.9218 1.81818 18.9641 2.13531 19.0063 2.43129 19.0063 2.72727 18.9641 3.31924 18.9006 3.86892 18.7315 4.39746 18.5201 3.82664 18.6258 3.25581 18.6892 2.70613 18.6681 2.43129 18.6469 2.15645 18.6258 1.90275 18.5412 1.64905 18.4778 1.41649 18.351 1.2685 18.1818 0.951374 17.8647 0.909091 17.3573 1.0148 16.8499 1.0148 16.7653 1.05708 16.6173 1.07822 16.5116Z" fill="#262261" transform="matrix(1.05 0 0 1 752 181)"/></g></g></g><path d="M785.349 71.9924 798.438 81.4364C798.621 89.8864 798.793 98.3354 798.977 106.785L741.523 113.992 730.031 106.039C729.848 97.4245 730.203 87.8154 730.031 79.1995L785.349 71.9924Z" fill="#FFFFFF" fill-rule="evenodd"/><g clip-path="url(#clip11)"><g clip-path="url(#clip12)"><g clip-path="url(#clip13)"><path d="M60.7237 43.3278 60.1416 23.1513 12.3517 29.6181 12.869 50.0534 60.7237 43.3278ZM57.0376 27.4841 57.4256 40.0944 53.9335 40.6118 53.5455 28.0014 57.0376 27.4841ZM48.178 28.7128 48.566 41.3231 45.0739 41.8405 44.6859 29.2301 48.178 28.7128ZM39.3184 29.9415 39.7064 42.5518 36.2143 43.0692 35.8263 30.4588 39.3184 29.9415ZM30.4588 31.2348 30.8468 43.8452 27.3547 44.3625 26.9667 31.6875 30.4588 31.2348ZM21.5993 32.4636 21.9873 45.0739 18.4952 45.5912 18.1072 32.9809 21.5993 32.4636Z" fill="#262261" transform="matrix(1.01346 0 0 1 732 62.4118)"/><path d="M0.905358 41.9051 9.05358 47.79 8.6009 28.9715 0.323342 23.0866Z" fill="#262261" transform="matrix(1.01346 0 0 1 732 62.4118)"/><path d="M58.6543 19.5299 48.566 12.3517 1.16403 19.0125 10.929 25.9967Z" fill="#262261" transform="matrix(1.01346 0 0 1 732 62.4118)"/></g></g></g><path d="M762.334 231.433 746.167 231.433 746.167 121.167 746.833 121.167 746.833 231.1 746.5 230.766 762.334 230.766ZM742.5 122.5 746.5 114.5 750.5 122.5Z" fill="#4472C4"/><path d="M768.974 276.778 762.167 276.778 762.167 238.167 762.833 238.167 762.833 276.445 762.5 276.112 768.974 276.112ZM758.5 239.5 762.5 231.5 766.5 239.5Z" fill="#4472C4"/><text font-family="Calibri,Calibri_MSFontService,sans-serif" font-weight="700" font-size="14" transform="translate(777.933 150)">layer1 (blob)<tspan font-size="14" x="-0.859863" y="22">layer2 (blob)</tspan></text><path d="M771.97 146.132 763.167 146.132 763.167 114.5 763.833 114.5 763.833 145.798 763.5 145.465 771.97 145.465ZM770.637 141.798 778.637 145.798 770.637 149.798Z" fill="#4472C4"/><path d="M771.11 168.127 763.167 168.127 763.167 114.5 763.833 114.5 763.833 167.793 763.5 167.46 771.11 167.46ZM769.777 163.793 777.777 167.793 769.777 171.793Z" fill="#4472C4"/><text font-family="Calibri,Calibri_MSFontService,sans-serif" font-weight="700" font-size="14" transform="translate(777.073 129)">config (blob)</text><path d="M771.11 125.083 763.167 125.083 763.167 114.5 763.833 114.5 763.833 124.749 763.5 124.416 771.11 124.416ZM769.777 120.749 777.777 124.749 769.777 128.749Z" fill="#4472C4"/><text font-family="Calibri,Calibri_MSFontService,sans-serif" font-weight="700" font-size="14" transform="translate(789.807 255)">sbom<tspan font-size="14" x="35.1667" y="0">content </tspan><tspan font-size="14" x="83.3334" y="0">(blob)</tspan></text><path d="M780.668 251.868 772.167 251.868 772.167 239.5 772.833 239.5 772.833 251.534 772.5 251.201 780.668 251.201ZM779.335 247.534 787.335 251.534 779.335 255.534Z" fill="#4472C4"/><text font-family="Calibri,Calibri_MSFontService,sans-serif" font-weight="700" font-size="14" transform="translate(797.307 301)">signature content <tspan font-size="14" x="105.833" y="0">(blob)</tspan></text><path d="M787.695 297.087 778.167 297.087 778.167 286.5 778.833 286.5 778.833 296.754 778.5 296.421 787.695 296.421ZM786.362 292.754 794.362 296.754 786.362 300.754Z" fill="#4472C4"/><path d="M753.128 191.312 746.167 191.312 746.167 121.167 746.833 121.167 746.833 190.979 746.5 190.646 753.128 190.646ZM742.5 122.5 746.5 114.5 750.5 122.5Z" fill="#4472C4"/></g></svg>