<svg width="268" height="146" xmlns="http://www.w3.org/2000/svg" xmlns:xlink="http://www.w3.org/1999/xlink" overflow="hidden"><defs><clipPath id="clip0"><rect x="999" y="71" width="268" height="146"/></clipPath><clipPath id="clip1"><rect x="1032" y="165" width="20" height="15"/></clipPath><clipPath id="clip2"><rect x="1032" y="165" width="20" height="15"/></clipPath><clipPath id="clip3"><rect x="1032" y="165" width="20" height="15"/></clipPath><clipPath id="clip4"><rect x="1032" y="165" width="20" height="15"/></clipPath><clipPath id="clip5"><rect x="1047" y="189" width="21" height="20"/></clipPath><clipPath id="clip6"><rect x="1047" y="189" width="21" height="20"/></clipPath><clipPath id="clip7"><rect x="1047" y="189" width="21" height="20"/></clipPath><clipPath id="clip8"><rect x="1022" y="140" width="21" height="20"/></clipPath><clipPath id="clip9"><rect x="1022" y="140" width="21" height="20"/></clipPath><clipPath id="clip10"><rect x="1022" y="140" width="21" height="20"/></clipPath><clipPath id="clip11"><rect x="1002" y="72" width="62" height="42"/></clipPath><clipPath id="clip12"><rect x="1002" y="72" width="62" height="42"/></clipPath><clipPath id="clip13"><rect x="1002" y="62" width="62" height="62"/></clipPath></defs><g clip-path="url(#clip0)" transform="translate(-999 -71)"><path d="M1005.48 79.491 1258.48 79.491 1258.48 215.491 1005.48 215.491Z" stroke="#262261" stroke-width="1.33333" stroke-miterlimit="8" fill="#FFFFFF" fill-rule="evenodd"/><path d="M1032.33 172.93 1016.17 172.93 1016.17 121.167 1016.83 121.167 1016.83 172.597 1016.5 172.264 1032.33 172.264ZM1012.5 122.5 1016.5 114.5 1020.5 122.5Z" fill="#4472C4"/><text font-family="Consolas,Consolas_MSFontService,sans-serif" font-weight="400" font-size="24" transform="translate(1067.35 102)">net-<tspan font-size="24" x="52.6666" y="0">monitor:</tspan><tspan font-size="24" x="158" y="0">v1</tspan><tspan font-family="Calibri,Calibri_MSFontService,sans-serif" font-weight="700" font-size="14" x="-11.1099" y="75">SBoM</tspan><tspan font-family="Calibri,Calibri_MSFontService,sans-serif" font-size="14" x="26.2235" y="75">document</tspan></text><g clip-path="url(#clip1)"><g clip-path="url(#clip2)"><g clip-path="url(#clip3)"><g clip-path="url(#clip4)"><text font-family="Calibri,Calibri_MSFontService,sans-serif" font-weight="400" font-size="8" transform="matrix(1.03018 0 0 1.05123 1033.24 171)">S<tspan font-size="8" x="3.01461" y="1.90253">B</tspan><tspan font-size="8" x="6.23113" y="3.80507">o</tspan><tspan font-size="7" x="7.98117" y="6.65887">M</tspan></text></g></g></g></g><text font-family="Calibri,Calibri_MSFontService,sans-serif" font-weight="700" font-size="14" transform="translate(1067.8 203)">Wabbit Networks <tspan font-weight="400" font-size="14" x="105.5" y="0">signature</tspan></text><g clip-path="url(#clip5)"><g clip-path="url(#clip6)"><g clip-path="url(#clip7)"><path d="M12.5793 10.4017 10.9937 9.00634 5.96195 15.2008 7.56871 16.5751Z" fill="#262261" transform="matrix(1.05 0 0 1 1047 189)"/><path d="M6.0888 16.9767 5.24313 16.3002 4.77801 18.351 6.68076 17.4841Z" fill="#262261" transform="matrix(1.05 0 0 1 1047 189)"/><path d="M17.4841 1.0148 19.0909 2.38901 19.9366 1.35307 18.2875 0.0211417Z" fill="#262261" transform="matrix(1.05 0 0 1 1047 189)"/><path d="M14.334 10.1057 15.3277 10.9091 17.8436 7.82241C18.6892 6.8499 19.0909 5.62368 18.9006 4.60888 18.8161 4.14376 18.6047 3.74207 18.3087 3.40381L16.7019 2.00846 11.7759 8.03383 13.3827 9.42918 17.463 4.39746C17.5476 4.52431 17.611 4.6723 17.6321 4.84144 17.759 5.47569 17.4419 6.32135 16.871 6.99789L14.334 10.1057Z" fill="#262261" transform="matrix(1.05 0 0 1 1047 189)"/><path d="M1.07822 16.5116C1.12051 16.4059 1.16279 16.3002 1.22622 16.1945 1.35307 15.9831 1.50106 15.814 1.69133 15.6448 2.05074 15.3066 2.51586 15.0317 3.00211 14.778 3.48837 14.5243 3.99577 14.2918 4.52431 14.0381 4.77801 13.9112 5.05285 13.7632 5.3277 13.5729 5.47569 13.4884 5.60254 13.3827 5.75053 13.2347 5.89852 13.0867 6.04651 12.9175 6.13108 12.6427 6.23679 12.389 6.21564 12.0507 6.13108 11.8182 6.04651 11.5645 5.87738 11.3742 5.72939 11.2262 5.41226 10.9514 5.11628 10.8034 4.84144 10.6554 4.29175 10.3805 3.76321 10.2114 3.27696 9.97886 2.81184 9.7463 2.41015 9.4926 2.17759 9.15433 1.94503 8.83721 1.86047 8.41438 1.92389 7.94926 1.98731 7.463 2.13531 6.99789 2.38901 6.59619 2.91755 5.79281 3.91121 5.26427 4.96829 4.96829 5.49683 4.8203 6.04651 4.71459 6.61734 4.65116 6.89218 4.60888 7.18816 4.58774 7.463 4.5666 7.73784 4.54545 8.03383 4.52431 8.32981 4.52431 7.18816 4.22833 6.00423 4.16491 4.8203 4.3129 4.22833 4.39746 3.63636 4.54545 3.06554 4.79915 2.49471 5.05285 1.96617 5.4334 1.54334 5.96195 1.33192 6.21564 1.16279 6.51163 1.03594 6.80761 0.909091 7.12474 0.824524 7.42072 0.761099 7.75899 0.697674 8.09725 0.697674 8.43552 0.739958 8.79493 0.803383 9.15433 0.930233 9.51374 1.14165 9.83087 1.35307 10.148 1.60677 10.3805 1.88161 10.592 2.15645 10.8034 2.43129 10.9514 2.70613 11.0994 3.25581 11.3742 3.8055 11.5856 4.29175 11.797 4.52431 11.9027 4.73573 12.0296 4.86258 12.1353 4.926 12.1776 4.94715 12.2199 4.94715 12.241 4.94715 12.2622 4.94715 12.241 4.94715 12.241 4.94715 12.241 4.926 12.3044 4.86258 12.3679 4.79915 12.4313 4.71459 12.4947 4.63002 12.5793 4.43975 12.7273 4.20719 12.8541 3.97463 13.0021 3.48837 13.277 2.98097 13.5518 2.47357 13.8478 1.96617 14.1649 1.45877 14.5243 1.03594 15.0106 0.824524 15.2431 0.63425 15.5391 0.5074 15.8351 0.443975 15.9831 0.38055 16.1522 0.359408 16.3214 0.317125 16.4905 0.317125 16.6385 0.295983 16.7865 0.274841 17.1036 0.274841 17.4207 0.38055 17.759 0.465116 18.0761 0.655391 18.3932 0.930233 18.6047 1.20507 18.8161 1.5222 18.9218 1.81818 18.9641 2.13531 19.0063 2.43129 19.0063 2.72727 18.9641 3.31924 18.9006 3.86892 18.7315 4.39746 18.5201 3.82664 18.6258 3.25581 18.6892 2.70613 18.6681 2.43129 18.6469 2.15645 18.6258 1.90275 18.5412 1.64905 18.4778 1.41649 18.351 1.2685 18.1818 0.951374 17.8647 0.909091 17.3573 1.0148 16.8499 1.0148 16.7653 1.05708 16.6173 1.07822 16.5116Z" fill="#262261" transform="matrix(1.05 0 0 1 1047 189)"/></g></g></g><text font-family="Calibri,Calibri_MSFontService,sans-serif" font-weight="700" font-size="14" transform="translate(1042.92 154)">Wabbit Networks <tspan font-weight="400" font-size="14" x="105.5" y="0">signature</tspan></text><g clip-path="url(#clip8)"><g clip-path="url(#clip9)"><g clip-path="url(#clip10)"><path d="M12.5793 10.4017 10.9937 9.00634 5.96195 15.2008 7.56871 16.5751Z" fill="#262261" transform="matrix(1.05 0 0 1 1022 140)"/><path d="M6.0888 16.9767 5.24313 16.3002 4.77801 18.351 6.68076 17.4841Z" fill="#262261" transform="matrix(1.05 0 0 1 1022 140)"/><path d="M17.4841 1.0148 19.0909 2.38901 19.9366 1.35307 18.2875 0.0211417Z" fill="#262261" transform="matrix(1.05 0 0 1 1022 140)"/><path d="M14.334 10.1057 15.3277 10.9091 17.8436 7.82241C18.6892 6.8499 19.0909 5.62368 18.9006 4.60888 18.8161 4.14376 18.6047 3.74207 18.3087 3.40381L16.7019 2.00846 11.7759 8.03383 13.3827 9.42918 17.463 4.39746C17.5476 4.52431 17.611 4.6723 17.6321 4.84144 17.759 5.47569 17.4419 6.32135 16.871 6.99789L14.334 10.1057Z" fill="#262261" transform="matrix(1.05 0 0 1 1022 140)"/><path d="M1.07822 16.5116C1.12051 16.4059 1.16279 16.3002 1.22622 16.1945 1.35307 15.9831 1.50106 15.814 1.69133 15.6448 2.05074 15.3066 2.51586 15.0317 3.00211 14.778 3.48837 14.5243 3.99577 14.2918 4.52431 14.0381 4.77801 13.9112 5.05285 13.7632 5.3277 13.5729 5.47569 13.4884 5.60254 13.3827 5.75053 13.2347 5.89852 13.0867 6.04651 12.9175 6.13108 12.6427 6.23679 12.389 6.21564 12.0507 6.13108 11.8182 6.04651 11.5645 5.87738 11.3742 5.72939 11.2262 5.41226 10.9514 5.11628 10.8034 4.84144 10.6554 4.29175 10.3805 3.76321 10.2114 3.27696 9.97886 2.81184 9.7463 2.41015 9.4926 2.17759 9.15433 1.94503 8.83721 1.86047 8.41438 1.92389 7.94926 1.98731 7.463 2.13531 6.99789 2.38901 6.59619 2.91755 5.79281 3.91121 5.26427 4.96829 4.96829 5.49683 4.8203 6.04651 4.71459 6.61734 4.65116 6.89218 4.60888 7.18816 4.58774 7.463 4.5666 7.73784 4.54545 8.03383 4.52431 8.32981 4.52431 7.18816 4.22833 6.00423 4.16491 4.8203 4.3129 4.22833 4.39746 3.63636 4.54545 3.06554 4.79915 2.49471 5.05285 1.96617 5.4334 1.54334 5.96195 1.33192 6.21564 1.16279 6.51163 1.03594 6.80761 0.909091 7.12474 0.824524 7.42072 0.761099 7.75899 0.697674 8.09725 0.697674 8.43552 0.739958 8.79493 0.803383 9.15433 0.930233 9.51374 1.14165 9.83087 1.35307 10.148 1.60677 10.3805 1.88161 10.592 2.15645 10.8034 2.43129 10.9514 2.70613 11.0994 3.25581 11.3742 3.8055 11.5856 4.29175 11.797 4.52431 11.9027 4.73573 12.0296 4.86258 12.1353 4.926 12.1776 4.94715 12.2199 4.94715 12.241 4.94715 12.2622 4.94715 12.241 4.94715 12.241 4.94715 12.241 4.926 12.3044 4.86258 12.3679 4.79915 12.4313 4.71459 12.4947 4.63002 12.5793 4.43975 12.7273 4.20719 12.8541 3.97463 13.0021 3.48837 13.277 2.98097 13.5518 2.47357 13.8478 1.96617 14.1649 1.45877 14.5243 1.03594 15.0106 0.824524 15.2431 0.63425 15.5391 0.5074 15.8351 0.443975 15.9831 0.38055 16.1522 0.359408 16.3214 0.317125 16.4905 0.317125 16.6385 0.295983 16.7865 0.274841 17.1036 0.274841 17.4207 0.38055 17.759 0.465116 18.0761 0.655391 18.3932 0.930233 18.6047 1.20507 18.8161 1.5222 18.9218 1.81818 18.9641 2.13531 19.0063 2.43129 19.0063 2.72727 18.9641 3.31924 18.9006 3.86892 18.7315 4.39746 18.5201 3.82664 18.6258 3.25581 18.6892 2.70613 18.6681 2.43129 18.6469 2.15645 18.6258 1.90275 18.5412 1.64905 18.4778 1.41649 18.351 1.2685 18.1818 0.951374 17.8647 0.909091 17.3573 1.0148 16.8499 1.0148 16.7653 1.05708 16.6173 1.07822 16.5116Z" fill="#262261" transform="matrix(1.05 0 0 1 1022 140)"/></g></g></g><path d="M1055.35 71.9924 1068.44 81.4364C1068.62 89.8864 1068.79 98.3354 1068.98 106.785L1011.52 113.992 1000.03 106.039C999.848 97.4245 1000.2 87.8154 1000.03 79.1995L1055.35 71.9924Z" fill="#FFFFFF" fill-rule="evenodd"/><g clip-path="url(#clip11)"><g clip-path="url(#clip12)"><g clip-path="url(#clip13)"><path d="M60.7237 43.3278 60.1416 23.1513 12.3517 29.6181 12.869 50.0534 60.7237 43.3278ZM57.0376 27.4841 57.4256 40.0944 53.9335 40.6118 53.5455 28.0014 57.0376 27.4841ZM48.178 28.7128 48.566 41.3231 45.0739 41.8405 44.6859 29.2301 48.178 28.7128ZM39.3184 29.9415 39.7064 42.5518 36.2143 43.0692 35.8263 30.4588 39.3184 29.9415ZM30.4588 31.2348 30.8468 43.8452 27.3547 44.3625 26.9667 31.6875 30.4588 31.2348ZM21.5993 32.4636 21.9873 45.0739 18.4952 45.5912 18.1072 32.9809 21.5993 32.4636Z" fill="#262261" transform="matrix(1.01346 0 0 1 1002 62.4118)"/><path d="M0.905358 41.9051 9.05358 47.79 8.6009 28.9715 0.323342 23.0866Z" fill="#262261" transform="matrix(1.01346 0 0 1 1002 62.4118)"/><path d="M58.6543 19.5299 48.566 12.3517 1.16403 19.0125 10.929 25.9967Z" fill="#262261" transform="matrix(1.01346 0 0 1 1002 62.4118)"/></g></g></g><path d="M1032.33 172.93 1016.17 172.93 1016.17 121.167 1016.83 121.167 1016.83 172.597 1016.5 172.264 1032.33 172.264ZM1012.5 122.5 1016.5 114.5 1020.5 122.5Z" fill="#4472C4"/><path d="M1047.97 199.771 1042.17 199.771 1042.17 187.167 1042.83 187.167 1042.83 199.437 1042.5 199.104 1047.97 199.104ZM1038.5 188.5 1042.5 180.5 1046.5 188.5Z" fill="#4472C4"/><text font-family="Calibri,Calibri_MSFontService,sans-serif" font-weight="700" font-size="14" transform="translate(1047.03 129)">content <tspan font-size="14" x="48.1666" y="0">(</tspan><tspan font-size="14" x="52.5" y="0">blobs)</tspan></text><path d="M1041.11 125.083 1033.17 125.083 1033.17 114.5 1033.83 114.5 1033.83 124.749 1033.5 124.416 1041.11 124.416ZM1039.78 120.749 1047.78 124.749 1039.78 128.749Z" fill="#4472C4"/><path d="M1023.13 150.311 1016.17 150.311 1016.17 121.167 1016.83 121.167 1016.83 149.977 1016.5 149.644 1023.13 149.644ZM1012.5 122.5 1016.5 114.5 1020.5 122.5Z" fill="#4472C4"/></g></svg>